HIERARCHY
ROOT Hips
{
	OFFSET 0.00000 0.00000 0.00000
	CHANNELS 6 Xposition Yposition Zposition Zrotation Yrotation Xrotation 
	JOINT LHipJoint
	{
		OFFSET 0 0 0
		CHANNELS 3 Zrotation Yrotation Xrotation
		JOINT LeftUpLeg
		{
			OFFSET 1.58161 -1.81893 0.78828
			CHANNELS 3 Zrotation Yrotation Xrotation
			JOINT LeftLeg
			{
				OFFSET 2.53374 -6.96141 0.00000
				CHANNELS 3 Zrotation Yrotation Xrotation
				JOINT LeftFoot
				{
					OFFSET 2.63509 -7.23986 0.00000
					CHANNELS 3 Zrotation Yrotation Xrotation
					JOINT LeftToeBase
					{
						OFFSET 0.14115 -0.38781 2.05350
						CHANNELS 3 Zrotation Yrotation Xrotation
						End Site
						{
							OFFSET 0.00000 -0.00000 1.05543
						}
					}
				}
			}
		}
	}
	JOINT RHipJoint
	{
		OFFSET 0 0 0
		CHANNELS 3 Zrotation Yrotation Xrotation
		JOINT RightUpLeg
		{
			OFFSET -1.11138 -1.81893 0.78828
			CHANNELS 3 Zrotation Yrotation Xrotation
			JOINT RightLeg
			{
				OFFSET -2.58392 -7.09926 0.00000
				CHANNELS 3 Zrotation Yrotation Xrotation
				JOINT RightFoot
				{
					OFFSET -2.66423 -7.31992 0.00000
					CHANNELS 3 Zrotation Yrotation Xrotation
					JOINT RightToeBase
					{
						OFFSET -0.18831 -0.51739 2.12114
						CHANNELS 3 Zrotation Yrotation Xrotation
						End Site
						{
							OFFSET -0.00000 -0.00000 1.09845
						}
					}
				}
			}
		}
	}
	JOINT LowerBack
	{
		OFFSET 0 0 0
		CHANNELS 3 Zrotation Yrotation Xrotation
		JOINT Spine
		{
			OFFSET -0.01511 1.97958 -0.08829
			CHANNELS 3 Zrotation Yrotation Xrotation
			JOINT Spine1
			{
				OFFSET 0.08344 1.97334 -0.04330
				CHANNELS 3 Zrotation Yrotation Xrotation
				JOINT Neck
				{
					OFFSET 0 0 0
					CHANNELS 3 Zrotation Yrotation Xrotation
					JOINT Neck1
					{
						OFFSET 0.00559 1.76246 0.31246
						CHANNELS 3 Zrotation Yrotation Xrotation
						JOINT Head
						{
							OFFSET -0.07011 1.80354 -0.30524
							CHANNELS 3 Zrotation Yrotation Xrotation
							End Site
							{
								OFFSET -0.02385 1.83547 -0.13906
							}
						}
					}
				}
				JOINT LeftShoulder
				{
					OFFSET 0 0 0
					CHANNELS 3 Zrotation Yrotation Xrotation
					JOINT LeftArm
					{
						OFFSET 3.20667 1.30156 -0.60240
						CHANNELS 3 Zrotation Yrotation Xrotation
						JOINT LeftForeArm
						{
							OFFSET 4.95663 -0.00000 0.00000
							CHANNELS 3 Zrotation Yrotation Xrotation
							JOINT LeftHand
							{
								OFFSET 3.38177 -0.00000 0.00000
								CHANNELS 3 Zrotation Yrotation Xrotation
								JOINT LeftFingerBase
								{
									OFFSET 0 0 0
									CHANNELS 3 Zrotation Yrotation Xrotation
									JOINT LeftHandIndex1
									{
										OFFSET 0.66291 -0.00000 0.00000
										CHANNELS 3 Zrotation Yrotation Xrotation
										End Site
										{
											OFFSET 0.53445 -0.00000 0.00000
										}
									}
								}
								JOINT LThumb
								{
									OFFSET 0 0 0
									CHANNELS 3 Zrotation Yrotation Xrotation
									End Site
									{
										OFFSET 0.54261 -0.00000 0.54261
									}
								}
							}
						}
					}
				}
				JOINT RightShoulder
				{
					OFFSET 0 0 0
					CHANNELS 3 Zrotation Yrotation Xrotation
					JOINT RightArm
					{
						OFFSET -3.06877 1.34672 -0.60964
						CHANNELS 3 Zrotation Yrotation Xrotation
						JOINT RightForeArm
						{
							OFFSET -5.08365 -0.00000 0.00000
							CHANNELS 3 Zrotation Yrotation Xrotation
							JOINT RightHand
							{
								OFFSET -3.35984 -0.00000 0.00000
								CHANNELS 3 Zrotation Yrotation Xrotation
								JOINT RightFingerBase
								{
									OFFSET 0 0 0
									CHANNELS 3 Zrotation Yrotation Xrotation
									JOINT RightHandIndex1
									{
										OFFSET -0.82076 -0.00000 0.00000
										CHANNELS 3 Zrotation Yrotation Xrotation
										End Site
										{
											OFFSET -0.66172 -0.00000 0.00000
										}
									}
								}
								JOINT RThumb
								{
									OFFSET 0 0 0
									CHANNELS 3 Zrotation Yrotation Xrotation
									End Site
									{
										OFFSET -0.67182 -0.00000 0.67182
									}
								}
							}
						}
					}
				}
			}
		}
	}
}
MOTION
Frames: 7
Frame Time: .0083333
-8.6189 18.0731 5.3837 0 0 0 0 0 0 -21 0 0 0 0 0 0 0 0 0 0 0 0 0 0 21 0 0 0 0 0 0 0 0 0 0 0 0 0 0 0 0 0 0 0 0 0 0 -16 0 0 21 0 0 11 0 0 0 -8 0 0 0 0 0 0 0 0 0 0 0 0 0 0 0 0 0 0 0 0 8 0 0 0 0 0 0 0 0 0 0 0 0 0 0 0 0 0
-8.6189 18.0731 5.3837 -41.0982 83.3834 -22.2811 0.0000 0.0000 0.0000 -8.8967 -6.7288 -33.4913 1.7936 8.4222 24.0041 0.0812 -6.2250 -6.2722 0.4903 -4.4897 -12.4587 0.0000 0.0000 0.0000 16.5517 11.3153 -34.5627 -2.0457 -8.9606 25.6720 -0.0832 -1.0164 -5.9198 -0.0686 -1.6896 4.6485 -2.2296 1.3900 6.3728 4.4615 1.9560 7.1314 5.8526 0.8802 3.6135 2.4206 -0.7067 -11.0926 -6.4728 3.2467 40.9529 -2.6191 1.4711 16.8632 -0.0000 -0.0000 0.0000 -93.5020 -16.5027 77.1192 42.6166 -49.5459 -20.4085 -0.0000 0.0000 -60.8853 29.9979 63.3993 27.3025 -7.1250 0.0000 -0.0000 170.6740 6.7904 8.2710 -0.0000 -0.0000 0.0000 87.1511 14.9012 65.0679 -37.9864 46.8306 -16.9557 0.0000 -0.0000 -54.3568 -34.1737 -12.8997 8.6186 7.1250 -0.0000 -0.0000 -6.4451 -45.3542 0.0566
-8.6216 18.0735 5.3831 -41.1880 83.4626 -22.3858 0.0000 0.0000 0.0000 -8.9616 -6.6986 -33.5110 1.7913 8.4172 23.9885 0.0748 -6.3011 -6.1731 0.4588 -4.3449 -12.0491 0.0000 0.0000 0.0000 16.5314 11.2221 -34.5804 -2.0461 -8.9615 25.6751 -0.0848 -0.9724 -5.9466 -0.0780 -1.8019 4.9584 -2.2082 1.3725 6.3861 4.4368 1.9345 7.1554 5.8153 0.8705 3.6351 2.4465 -0.7001 -11.1200 -6.4755 3.2536 40.9715 -2.6248 1.4773 16.8815 0.0000 0.0000 0.0000 -93.3924 -16.5277 77.2220 42.8649 -49.6786 -20.5977 -0.0000 0.0000 -61.2075 31.5535 63.7233 28.8385 -7.1250 0.0000 -0.0000 170.9728 7.3944 7.8915 0.0000 0.0000 0.0000 87.1771 14.9649 65.0772 -37.9361 46.7985 -16.9190 0.0000 -0.0000 -54.4229 -34.2069 -13.0021 8.6954 7.1250 -0.0000 -0.0000 -6.4756 -45.4796 0.0770
-8.6238 18.0731 5.3837 -41.5480 83.5109 -22.7034 0.0000 0.0000 0.0000 -8.9420 -6.7140 -33.5769 1.7924 8.4195 23.9956 0.0711 -6.3535 -6.1214 0.4378 -4.2459 -11.7696 0.0000 0.0000 0.0000 16.5290 11.2181 -34.6231 -2.0436 -8.9563 25.6588 -0.0854 -0.9818 -5.9728 -0.0784 -1.8058 4.9693 -2.1679 1.3567 6.3388 4.4357 1.9154 7.1767 5.7941 0.8616 3.6872 2.4531 -0.6903 -11.1587 -6.4946 3.2682 40.9487 -2.6319 1.4801 16.8806 0.0000 0.0000 0.0000 -93.3507 -16.5845 77.3187 43.0165 -49.7589 -20.7134 -0.0000 0.0000 -61.5404 33.3212 64.0759 30.5939 -7.1250 0.0000 -0.0000 171.2981 8.0812 7.4813 0.0000 0.0000 0.0000 87.2130 15.0754 65.0851 -37.8053 46.7145 -16.8237 0.0000 -0.0000 -54.3051 -34.2590 -13.1507 8.8085 7.1250 -0.0000 -0.0000 -6.5237 -45.6624 0.1071
-8.6258 18.0713 5.3840 -42.2503 83.5061 -23.3598 0.0000 0.0000 0.0000 -8.8564 -6.7202 -33.6467 1.7946 8.4244 24.0107 0.0723 -6.4016 -6.1691 0.4531 -4.3184 -11.9742 0.0000 0.0000 0.0000 16.5895 11.2384 -34.6464 -2.0386 -8.9460 25.6265 -0.0845 -1.0183 -5.9634 -0.0799 -1.8232 5.0174 -2.0814 1.3515 6.2921 4.4583 1.9119 7.1877 5.7707 0.8625 3.7266 2.4530 -0.6771 -11.1234 -6.5313 3.2939 40.8827 -2.6416 1.4854 16.8378 0.0000 -0.0000 0.0000 -93.3895 -16.6229 77.3342 42.9345 -49.7155 -20.6508 -0.0000 0.0000 -61.4600 32.3912 63.8114 29.6520 -7.1250 0.0000 -0.0000 171.1578 7.6469 7.6814 0.0000 -0.0000 0.0000 87.2051 15.1309 65.0731 -37.7263 46.6636 -16.7663 0.0000 -0.0000 -54.1246 -34.3286 -13.2743 8.9114 7.1250 -0.0000 -0.0000 -6.5890 -45.8184 0.1337
-8.6273 18.0703 5.3836 -42.6625 83.5076 -23.7452 0.0000 0.0000 0.0000 -8.7869 -6.8007 -33.6712 1.7976 8.4312 24.0315 0.0759 -6.3626 -6.2258 0.4579 -4.3410 -12.0382 0.0000 0.0000 0.0000 16.6330 11.1972 -34.6539 -2.0307 -8.9297 25.5755 -0.0823 -1.0109 -5.8906 -0.0901 -1.9358 5.3284 -2.0232 1.3567 6.2689 4.4698 1.9211 7.1963 5.7503 0.8691 3.7487 2.4513 -0.6608 -11.0826 -6.5504 3.3208 40.8292 -2.6432 1.4939 16.8003 -0.0000 -0.0000 0.0000 -93.4785 -16.6717 77.3106 42.8350 -49.6627 -20.5749 -0.0000 0.0000 -61.4292 31.9592 63.5593 29.1885 -7.1250 0.0000 -0.0000 171.1347 7.3295 7.7577 -0.0000 -0.0000 0.0000 87.1229 15.1334 65.0634 -37.7486 46.6780 -16.7825 0.0000 -0.0000 -54.1125 -34.3335 -13.2191 8.8772 7.1250 -0.0000 -0.0000 -6.5943 -45.7541 0.1233
-8.6283 18.0704 5.3842 -43.0339 83.4894 -24.0946 0.0000 0.0000 0.0000 -8.7022 -6.8629 -33.6828 1.7992 8.4347 24.0424 0.0767 -6.3201 -6.2230 0.4318 -4.2170 -11.6881 0.0000 0.0000 0.0000 16.7025 11.1449 -34.6655 -2.0220 -8.9117 25.5196 -0.0807 -0.9767 -5.8164 -0.0974 -2.0126 5.5404 -2.0052 1.3506 6.2327 4.4968 1.9140 7.2177 5.7709 0.8649 3.7922 2.4253 -0.6409 -11.0902 -6.5693 3.3593 40.7933 -2.6394 1.5021 16.7858 -0.0000 0.0000 0.0000 -93.5874 -16.7278 77.2107 42.8285 -49.6592 -20.5699 -0.0000 0.0000 -61.5720 32.9868 63.6130 30.1760 -7.1250 0.0000 -0.0000 171.3817 7.5949 7.4911 -0.0000 0.0000 0.0000 86.9671 15.1733 65.2517 -37.8108 46.7181 -16.8277 0.0000 -0.0000 -54.2906 -34.3989 -13.0477 8.7870 7.1250 -0.0000 -0.0000 -6.6587 -45.5616 0.0927
